<?xml version="1.0" encoding="UTF-8" standalone="no"?>
<!DOCTYPE svg PUBLIC "-//W3C//DTD SVG 1.1//EN" "http://www.w3.org/Graphics/SVG/1.1/DTD/svg11.dtd">
<svg xmlns="http://www.w3.org/2000/svg" version="1.1" viewBox="0.00 0.00 101.00 101.00"> 
<path fill="#050505" d="
  M 50.36 75.23
  L 82.38 33.33
  A 0.31 0.31 0.0 0 0 82.27 32.87
  L 57.39 19.92
  A 0.31 0.31 0.0 0 1 57.22 19.64
  L 57.32 9.74
  A 0.31 0.31 0.0 0 1 57.77 9.47
  L 95.06 29.16
  A 0.31 0.31 0.0 0 1 95.17 29.61
  L 50.00 93.86
  A 0.31 0.31 0.0 0 1 49.50 93.86
  L 4.37 29.59
  A 0.31 0.31 0.0 0 1 4.48 29.14
  L 49.31 5.41
  A 0.31 0.31 0.0 0 1 49.76 5.68
  L 49.80 75.04
  A 0.31 0.31 0.0 0 0 50.36 75.23
  Z
  M 25.56 34.23
  L 38.31 22.42
  A 0.22 0.22 0.0 0 0 38.06 22.07
  L 18.96 32.69
  Q 18.43 32.99 18.79 33.47
  L 39.96 62.45
  Q 40.01 62.52 40.09 62.49
  Q 40.25 62.44 40.17 62.29
  Q 32.87 48.69 25.40 35.17
  Q 25.11 34.64 25.56 34.23
  Z"
/> 
</svg>
